<?xml version="1.0" standalone="no"?>
<!DOCTYPE svg PUBLIC "-//W3C//DTD SVG 1.1//EN" "http://www.w3.org/Graphics/SVG/1.1/DTD/svg11.dtd" >
<svg xmlns="http://www.w3.org/2000/svg">
<metadata>
Created by FontForge 20120731 at Thu Jan 14 09:36:01 2016
 By Ads
</metadata>
<defs>
<font id="iconfont" horiz-adv-x="1024" >
  <font-face 
    font-family="iconfont"
    font-weight="500"
    font-stretch="normal"
    units-per-em="1024"
    panose-1="2 0 6 3 0 0 0 0 0 0"
    ascent="896"
    descent="-128"
    x-height="792"
    bbox="0 -128 1029 896"
    underline-thickness="50"
    underline-position="-100"
    unicode-range="U+0078-E612"
  />
<missing-glyph horiz-adv-x="374" 
d="M34 0v682h272v-682h-272zM68 34h204v614h-204v-614z" />
    <glyph glyph-name=".notdef" horiz-adv-x="374" 
d="M34 0v682h272v-682h-272zM68 34h204v614h-204v-614z" />
    <glyph glyph-name=".null" horiz-adv-x="0" 
 />
    <glyph glyph-name="nonmarkingreturn" horiz-adv-x="341" 
 />
    <glyph glyph-name="x" unicode="x" horiz-adv-x="1001" 
d="M281 543q-27 -1 -53 -1h-83q-18 0 -36.5 -6t-32.5 -18.5t-23 -32t-9 -45.5v-76h912v41q0 16 -0.5 30t-0.5 18q0 13 -5 29t-17 29.5t-31.5 22.5t-49.5 9h-133v-97h-438v97zM955 310v-52q0 -23 0.5 -52t0.5 -58t-10.5 -47.5t-26 -30t-33 -16t-31.5 -4.5q-14 -1 -29.5 -0.5
t-29.5 0.5h-32l-45 128h-439l-44 -128h-29h-34q-20 0 -45 1q-25 0 -41 9.5t-25.5 23t-13.5 29.5t-4 30v167h911zM163 247q-12 0 -21 -8.5t-9 -21.5t9 -21.5t21 -8.5q13 0 22 8.5t9 21.5t-9 21.5t-22 8.5zM316 123q-8 -26 -14 -48q-5 -19 -10.5 -37t-7.5 -25t-3 -15t1 -14.5
t9.5 -10.5t21.5 -4h37h67h81h80h64h36q23 0 34 12t2 38q-5 13 -9.5 30.5t-9.5 34.5q-5 19 -11 39h-368zM336 498v228q0 11 2.5 23t10 21.5t20.5 15.5t34 6h188q31 0 51.5 -14.5t20.5 -52.5v-227h-327z" />
    <glyph glyph-name="uniE600" unicode="&#xe600;" 
d="M512 384zM282 384q0 95 67.5 162.5t162.5 67.5t162.5 -67.5t67.5 -162.5q0 -19 -3 -37.5t-8.5 -35.5t-14 -33t-18.5 -30t-23 -27t-27 -23t-30 -18.5t-33 -14t-35.5 -8.5t-37.5 -3q-95 0 -162.5 67.5t-67.5 162.5zM512 896q-138 0 -256 -69t-187 -187t-69 -256t69 -256
t187 -187t256 -69t256 69t187 187t69 256t-69 256t-187 187t-256 69zM512 -26q-111 0 -205.5 55t-149.5 149.5t-55 205.5q0 83 33 159t87.5 130.5t130.5 87.5t159 33t159 -33t130.5 -87.5t87.5 -130.5t33 -159q0 -158 -108 -276q-104 -114 -256 -131q-24 -3 -46 -3z" />
    <glyph glyph-name="uniE601" unicode="&#xe601;" 
d="M512 896q-71 0 -137.5 -21.5t-120 -60.5t-93.5 -90.5t-62 -115.5t-22 -132q0 -66 25 -143q26 -68 67 -123l302 -323q23 -15 41 -15q21 1 36 15l307 328q40 46 67 118q25 77 25 143q0 159 -110 279q-108 117 -269 137q-28 4 -56 4zM824 369q-8 -25 -46 -87l-266 -282
l-261 282q-38 47 -51 87q-21 47 -21 107q0 86 44.5 159t121 116t167.5 43q68 0 129.5 -25.5t106 -68t71 -101.5t26.5 -123q0 -6 -0.5 -12t-0.5 -12t-1 -12l-2 -12q-1 -6 -2 -11.5t-2.5 -12t-3.5 -12t-4 -11.5t-5 -12zM512 691q-28 0 -54.5 -7.5t-49 -20.5t-41.5 -32
t-32 -41.5t-20.5 -49t-7.5 -54.5q0 -33 10.5 -64t29.5 -56.5t44 -44.5t56.5 -29t64.5 -10q41 0 79 16t65.5 43.5t44 65.5t16.5 79.5t-16.5 79.5t-44 65.5t-65.5 43.5t-79 16zM512 333q-65 0 -109.5 44t-44.5 109.5t44.5 109.5t109.5 44t109.5 -44t44.5 -110q0 -21 -5.5 -41
t-15.5 -37t-24 -31t-30.5 -23.5t-37 -15t-41.5 -5.5z" />
    <glyph glyph-name="uniE602" unicode="&#xe602;" 
d="M829 691h-169q-18 0 -32 -12.5t-14 -28.5v-169q0 -5 1.5 -10.5t3.5 -10t5 -8.5t6.5 -7t7.5 -5t8.5 -3.5t8.5 -1.5h169q19 0 32.5 12.5t13.5 28.5v174q0 10 -5.5 19.5t-15.5 15.5t-20 6zM819 384h-614q-8 0 -13.5 -3t-9 -9t-3.5 -14q4 -23 26 -25h614q12 0 19 7t7 18.5
t-7 18.5t-19 7zM819 282h-614q-12 0 -19 -7t-7 -19q0 -23 22 -25q3 -1 4 -1h614q12 0 19 7t7 19q0 8 -3.5 13.5t-9 9t-13.5 3.5zM819 179h-614q-12 0 -19 -7t-7 -18q4 -24 26 -26h614q8 0 13.5 3t9 9t3.5 14q0 11 -7 18t-19 7zM358 77h-153q-12 0 -19 -7t-7 -19
q4 -23 26 -25h153q8 0 14 3t9 9t3 13q0 6 -2 10.5t-5 8t-8 5.5t-11 2zM614 77h-153q-4 0 -7.5 -1t-6 -2.5t-5 -4t-4 -5t-2.5 -6t-1 -7.5q0 -11 7 -18t19 -7h153q12 0 19 7t7 18.5t-7 18.5t-19 7zM922 896h-820q-42 0 -72 -30t-30 -72v-820q0 -42 30 -72t72 -30h820
q42 0 72 30t30 72v820q0 11 -2.5 22.5t-8 22t-12.5 19t-15.5 15.5t-19 12.5t-22 8t-22.5 2.5zM102 -26v820h820v-820h-820z" />
    <glyph glyph-name="uniE603" unicode="&#xe603;" 
d="M225 502q-15 15 -35.5 15t-35.5 -15q-27 -27 -10 -59q4 -7 10 -13l261 -261q15 -15 35.5 -15t35.5 15l518 517q15 15 15 35.5t-15.5 36t-36 15.5t-35.5 -15l-481 -482zM922 384v-410h-820v820h615l102 102h-717q-42 0 -72 -30t-30 -72v-820q0 -42 30 -72t72 -30h820
q42 0 72 30t30 72v512z" />
    <glyph glyph-name="uniE604" unicode="&#xe604;" 
d="M481 553q-15 15 -35.5 15t-36 -15t-15.5 -35.5t16 -36.5l158 -158q16 -16 36 -16q11 0 19.5 4t16.5 12l364 363q15 15 15 35.5t-15.5 36t-36 15.5t-35.5 -15l-328 -328zM922 384v-256h-666v666h461l102 102h-563q-12 0 -23.5 -2.5t-21.5 -8t-19 -12.5t-16 -15.5t-12 -19
t-7.5 -22t-2.5 -22.5v-666q0 -42 30 -72t72 -30h666q42 0 72 30t30 72v358zM102 -26v666v102q-42 0 -72 -30t-30 -72v-666q0 -42 30 -72t72 -30h666q42 0 72 30t30 72h-102h-666z" />
    <glyph glyph-name="uniE605" unicode="&#xe605;" 
d="M205 640h51v-307h-51v-51h205v51h-52v307h52v51h-205v-51zM922 896h-820q-42 0 -72 -30t-30 -72v-820q0 -42 30 -72t72 -30h820q42 0 72 30t30 72v820q0 11 -2.5 22.5t-8 22t-12.5 19t-15.5 15.5t-19 12.5t-22 8t-22.5 2.5zM102 -26v820h820v-820h-820z" />
    <glyph glyph-name="uniE606" unicode="&#xe606;" 
d="M922 896h-820q-42 0 -72 -30t-30 -72v-820q0 -42 30 -72t72 -30h820q42 0 72 30t30 72v820q0 11 -2.5 22.5t-8 22t-12.5 19t-15.5 15.5t-19 12.5t-22 8t-22.5 2.5zM102 -26v820h820v-820h-820z" />
    <glyph glyph-name="uniE607" unicode="&#xe607;" 
d="M819 538v51q0 127 -90 217t-217 90t-217 -90t-90 -217v-51h-205v-512q0 -66 44 -110t110 -44h716q66 0 110 44t44 110v512h-205zM307 589q0 84 60.5 144.5t144.5 60.5q41 0 79 -16.5t65.5 -44t44 -65.5t16.5 -79v-51h-410v51zM922 26q0 -23 -14.5 -37.5t-37.5 -14.5h-716
q-23 0 -37.5 14.5t-14.5 37.5v409h103h614h103v-409zM512 384q-21 0 -40 -8t-32.5 -22t-21.5 -33t-8 -39q0 -60 56 -93q-5 -5 -5 -25v-67q0 -27 14 -46.5t37 -19.5t37 19.5t14 46.5v67v8q0 3 -0.5 7t-1.5 8t-3 8q16 7 28.5 21t20 32.5t7.5 38.5q0 39 -30 68t-72 29zM532 236
l-20 -11l-20 11q-31 15 -31 46q0 23 14 37t37 14q15 0 26.5 -6.5t18 -18t6.5 -26.5q0 -31 -31 -46z" />
    <glyph glyph-name="uniE608" unicode="&#xe608;" 
d="M922 517v225q0 43 -30.5 73t-72.5 30h-51q0 15 -6.5 26.5t-18 18t-26.5 6.5h-51q-16 0 -27.5 -6.5t-18 -18t-6.5 -26.5h-102q0 15 -6.5 26.5t-18 18t-26.5 6.5h-51q-21 0 -36.5 -14.5t-15.5 -36.5h-102q0 23 -14 37t-37 14h-51q-10 0 -17.5 -2.5t-14 -7t-11 -10.5t-7 -14
t-2.5 -17q-20 0 -39 -8t-33 -22t-22 -33t-8 -40v-665q0 -42 30 -72.5t72 -30.5h282q34 -31 74 -53.5t87 -35.5t95 -13q104 0 192 50.5t140 139.5t52 194q0 38 -7.5 74t-21 68.5t-32 62t-41.5 56.5zM717 845v-103v-51h-51v51v103h51zM461 845v-103v-51h-51v51v103h51z
M205 845v-103v-51h-51v51v103h51zM102 691q0 -15 6.5 -26.5t18 -18t27.5 -6.5h51q23 0 37 14t14 37v51h102v-51q0 -23 14.5 -37t37.5 -14h51q23 0 37 14t14 37v51h102v-51q0 -23 14.5 -37t37.5 -14h51q23 0 37 14t14 37v51h51v-148q-38 23 -83.5 34.5t-95.5 11.5
q-93 0 -173.5 -40.5t-133 -111.5t-67.5 -160q-5 0 -17.5 2.5t-18.5 2.5q-30 0 -53 -23t-23 -54t23 -54t53 -23q16 0 36 10q5 -41 36 -112h-200v614zM256 256q0 -12 -7 -19t-19 -7q-7 0 -13 3.5t-9 9t-3 13.5q0 12 7 19t18.5 7t18.5 -7t7 -19zM640 -26q-115 0 -198.5 83.5
t-83.5 198.5t83.5 198.5t198.5 83.5t198.5 -83.5t83.5 -198.5q0 -117 -86 -200q-83 -81 -196 -82zM819 256h-102q-2 9 -5 17.5t-8 16t-11 14t-13 11.5t-14 8v138q0 11 -7 18t-19 7t-19 -7t-7 -18v-138q-15 -5 -26.5 -16.5t-18 -26t-6.5 -29.5q0 -31 23 -54t54 -23
q8 0 15.5 2t14.5 5t13 7.5t10.5 10t7.5 11.5h118q12 0 19 7t7 19q0 8 -7.5 14t-18.5 6zM230.5 435q30.5 0 53.5 23t23 54t-23 54t-53.5 23t-53.5 -23t-23 -54t23 -54t53.5 -23zM230.5 538q7.5 0 13.5 -3.5t9 -9t3 -13.5q0 -12 -7 -19t-18.5 -7t-18.5 7t-7 19q0 8 3 13.5t9 9
t13.5 3.5z" />
    <glyph glyph-name="uniE609" unicode="&#xe609;" 
d="M0 681v-113l102 82v-645h103v758h-103zM655 579q0 53 -15 94.5t-49.5 68t-83.5 26.5q-65 0 -109.5 -47.5t-44.5 -116.5v-61h103v66q0 27 13.5 42t37.5 15q15 0 25 -6t15 -12.5t7.5 -20t3 -21.5t0.5 -22v-28q0 -9 -1.5 -22t-5 -23.5t-8.5 -24.5l-185 -368v-103h302v108
h-189l149 307q23 42 29 68.5t6 80.5zM963 399q22 15 33 25t18 28.5t8.5 40t1.5 65.5q0 49 -4 78t-12.5 47t-24.5 34q-3 5 -8 10.5t-11.5 10.5t-13.5 9.5t-16.5 8.5t-19 6.5t-21 4t-23.5 1.5q-40 0 -75.5 -21.5t-56.5 -58t-21 -79.5v-61h102v61q0 19 13.5 35t37.5 16
q16 0 27.5 -6t18 -18t6.5 -27v-97q0 -28 -8.5 -42.5t-25 -19.5t-48.5 -5v-97q17 0 29 -1t21.5 -4t15 -7.5t9.5 -13t5.5 -19.5t1.5 -27v-107q0 -18 -6.5 -32t-18 -21.5t-27.5 -7.5q-22 0 -36.5 16t-14.5 40v56h-102v-61q0 -25 5 -46t13.5 -37t20.5 -29t25 -21.5t28 -14.5
t29 -8.5t27 -2.5q12 0 22.5 1.5t20 4t18 6t16.5 8t14.5 10t12.5 11.5t10.5 12.5t8.5 13.5q16 23 21 52t5 101q9 83 1 116.5t-52 62.5z" />
    <glyph glyph-name="uniE60A" unicode="&#xe60a;" 
d="M154 640h102v-512h-102v-51h358v51h-102v512h102v51h-358v-51zM922 896h-820q-42 0 -72 -30t-30 -72v-820q0 -42 30 -72t72 -30h820q42 0 72 30t30 72v820q0 11 -2.5 22.5t-8 22t-12.5 19t-15.5 15.5t-19 12.5t-22 8t-22.5 2.5zM102 -26v820h820v-820h-820z" />
    <glyph glyph-name="uniE60B" unicode="&#xe60b;" horiz-adv-x="1030" 
d="M768 276.5q15 15.5 15 36t-15 35.5l-215 215q-5 5 -11.5 8.5t-13 5.5t-11.5 2q-20 0 -36 -16l-5 -5l-210 -210q-10 -10 -13.5 -23t0 -25.5t13.5 -23.5q16 -15 36.5 -15t35.5 15l123 128v-430q0 -15 6.5 -26.5t18 -18t26.5 -6.5t26.5 6.5t18 18t6.5 26.5v436l133 -134
q16 -15 36.5 -15t35.5 15.5zM840 614q-35 104 -123.5 167.5t-199.5 63.5q-73 0 -140 -28.5t-116 -81t-72 -121.5q-85 -27 -137 -95t-52 -155q0 -109 78 -188t188 -79q23 0 37 14t14 37.5t-14 37.5t-37 14q-66 0 -115 47.5t-49 116.5q0 57 38 102t96 56q32 8 40 41
q23 81 89.5 130t151.5 49q84 0 150 -51.5t86 -132.5q8 -33 41 -41q57 -11 95 -56t38 -103q0 -66 -48 -114.5t-116 -48.5q-23 0 -37 -14.5t-14 -37.5t14 -37t37 -14q108 0 187 78t79 188q0 37 -9 71.5t-25.5 63.5t-39.5 53t-52.5 41.5t-62.5 26.5z" />
    <glyph glyph-name="uniE60C" unicode="&#xe60c;" 
d="M788 543l-209 -210l-77 77q-16 15 -36.5 15t-35.5 -15.5t-15 -36t15 -35.5l113 -113q7 -7 17 -11t19 -4q20 0 35 15l246 246q16 15 16 35.5t-15.5 36t-36 15.5t-36.5 -15zM922 896h-820q-42 0 -72 -30t-30 -72v-820q0 -42 30 -72t72 -30h820q42 0 72 30t30 72v820
q0 11 -2.5 22.5t-8 22t-12.5 19t-15.5 15.5t-19 12.5t-22 8t-22.5 2.5zM102 -26v820h820v-820h-820z" />
    <glyph glyph-name="uniE60D" unicode="&#xe60d;" 
d="M348 497l-77 -77l-35 41q-5 5 -13 6.5t-15.5 0t-12.5 -6.5q-12 -12 0 -36l61 -61q5 -6 20.5 -6t20.5 6l97 97q8 7 8 17.5t-7.5 18t-23 7.5t-23.5 -7zM348 343l-77 -77l-41 41q-5 5 -11.5 7t-12.5 0t-11 -7q-8 -7 -8 -17.5t8 -18.5l61 -61q5 -5 20.5 -5t20.5 5l97 97
q8 8 8 18t-7.5 18t-23 8t-23.5 -8zM348 189l-77 -76l-41 41q-7 7 -17.5 7t-18 -7.5t-7.5 -18t8 -17.5l61 -62q5 -5 20 -5h5q2 0 5.5 0.5t6 2t4.5 2.5l97 98q8 7 8 17.5t-7.5 18t-23 7.5t-23.5 -8zM922 896h-820q-42 0 -72 -30t-30 -72v-820q0 -42 30 -72t72 -30h820
q42 0 72 30t30 72v820q0 11 -2.5 22.5t-8 22t-12.5 19t-15.5 15.5t-19 12.5t-22 8t-22.5 2.5zM102 -26v564h820v51h-820v205h820v-820h-820zM266 640l108 102h-220zM819 742h-358q-23 0 -37 -14t-14 -37t14 -37t37 -14h358q15 0 27 6.5t18 18t6 26.5q0 23 -14 37t-37 14z
M819 435h-358q-12 0 -19 -7t-7 -18q0 -6 2 -11t5.5 -8t8 -5t10.5 -2h358q12 0 19 7t7 18.5t-7 18.5t-19 7zM819 282h-358q-5 0 -9 -1.5t-7 -3.5t-5 -5t-3.5 -7t-1.5 -9q0 -12 7 -19t19 -7h358q12 0 19 7t7 19q0 8 -3.5 13.5t-9 9t-13.5 3.5zM819 128h-358q-12 0 -19 -7
t-7 -19q0 -5 2 -10t5.5 -8t8 -5t10.5 -2h358q12 0 19 7t7 18.5t-7 18.5t-19 7z" />
    <glyph glyph-name="uniE60E" unicode="&#xe60e;" 
d="M799 538h-256q-20 0 -28.5 -13.5t2.5 -32.5l128 -221q12 -19 26 -19t25 19l128 221q12 19 5 32.5t-30 13.5zM922 896h-820q-42 0 -72 -30t-30 -72v-820q0 -42 30 -72t72 -30h820q42 0 72 30t30 72v820q0 11 -2.5 22.5t-8 22t-12.5 19t-15.5 15.5t-19 12.5t-22 8
t-22.5 2.5zM102 -26v820h820v-820h-820z" />
    <glyph glyph-name="uniE60F" unicode="&#xe60f;" 
d="M922 896h-820q-42 0 -72 -30t-30 -72v-820q0 -42 30 -72t72 -30h820q42 0 72 30t30 72v820q0 11 -2.5 22.5t-8 22t-12.5 19t-15.5 15.5t-19 12.5t-22 8t-22.5 2.5zM102 -26v564h820v51h-820v205h820v-820h-820zM266 640l108 102h-220zM819 742h-358q-23 0 -37 -14
t-14 -37t14 -37t37 -14h358q15 0 27 6.5t18 18t6 26.5q0 23 -14 37t-37 14zM819 435h-358q-12 0 -19 -7t-7 -18q0 -6 2 -11t5.5 -8t8 -5t10.5 -2h358q12 0 19 7t7 18.5t-7 18.5t-19 7zM819 282h-358q-5 0 -9 -1.5t-7 -3.5t-5 -5t-3.5 -7t-1.5 -9q0 -12 7 -19t19 -7h358
q12 0 19 7t7 19q0 8 -3.5 13.5t-9 9t-13.5 3.5zM819 128h-358q-12 0 -19 -7t-7 -19q0 -5 2 -10t5.5 -8t8 -5t10.5 -2h358q12 0 19 7t7 18.5t-7 18.5t-19 7z" />
    <glyph glyph-name="uniE610" unicode="&#xe610;" 
d="M517 10q-171 0 -289 109q-114 104 -125 258q-1 14 -1 27q0 52 14.5 103t40.5 94.5t63.5 81t81.5 64.5t97 42t108 15q94 0 176 -40.5t132 -114t50 -163.5q0 -62 -27.5 -129.5t-71 -112t-85.5 -44.5q-6 0 -11 1.5t-8.5 5t-6 8.5t-4 11.5t-1.5 14.5t4 25.5t12 35.5l117 369
h-87l-25 -82h-5q-19 51 -61.5 76.5t-92.5 25.5q-54 0 -102.5 -21t-85.5 -57t-64 -83t-41 -100.5t-14 -106.5q0 -87 54 -146t140 -59q56 0 91 22t73 65q2 -17 7.5 -31t14.5 -24.5t21.5 -17.5t27.5 -10.5t32 -3.5q34 0 75 17t81.5 51t74.5 78.5t55 104t21 123.5q0 69 -24 132
t-67 112t-100.5 85.5t-128 55.5t-146.5 19q-102 0 -195.5 -38t-162 -102.5t-109 -153.5t-40.5 -187q0 -70 18 -134.5t50.5 -118.5t79.5 -98.5t102.5 -75.5t121 -48t135.5 -17q92 0 176.5 27.5t152.5 80t111 123.5h-102q-52 -60 -143.5 -102t-184.5 -42zM420 215
q-34 0 -59 13.5t-39.5 40t-14.5 64.5q0 57 27 117t75.5 102t102.5 42q48 0 72.5 -30.5t24.5 -82.5q4 -81 -50 -167q-56 -89 -125 -98q-8 -1 -14 -1z" />
    <glyph glyph-name="uniE611" unicode="&#xe611;" 
d="M717 538h-154q-7 0 -13 -3.5t-9 -9t-3 -13.5t3 -13.5t9 -9t13 -3.5h154q11 0 18 7t7 19t-7 19t-18 7zM717 640h-154q-11 0 -18 -7t-7 -18.5t7 -18.5t18 -7h154q11 0 18 7t7 18.5t-7 18.5t-18 7zM717 435h-154q-11 0 -18 -7t-7 -18.5t7 -18.5t18 -7h154q11 0 18 7t7 18.5
t-7 18.5t-18 7zM717 333h-154q-11 0 -18 -7t-7 -18.5t7 -18.5t18 -7h154q11 0 18 7t7 18.5t-7 18.5t-18 7zM717 230h-154q-11 0 -18 -7t-7 -18.5t7 -18.5t18 -7h154q11 0 18 7t7 19q0 4 -1 8t-3 7.5t-5.5 5.5t-7.5 3t-8 1zM794 742h-308q-26 0 -44.5 -13.5t-26.5 -37.5h-5
h-205q-4 0 -7.5 -0.5t-5.5 -2.5l-6 -4q-2 -2 -3.5 -5t-2.5 -6.5t-1 -6.5q0 -12 7 -19t19 -7h205v-102h-205q-8 0 -13.5 -3.5t-9 -9t-3.5 -13.5t3.5 -13.5t9 -9t13.5 -3.5h205v-102h-205q-8 0 -13.5 -3t-9 -9t-3.5 -14q4 -23 26 -25h205v-103h-205q-12 0 -19 -7t-7 -18
q4 -23 26 -26h205v-25q0 -31 23 -54t53 -23h308q30 0 53 23t23 54v512q0 42 -38 65q-19 11 -38 11zM819 154q0 -12 -7 -19t-18 -7h-308q-11 0 -18 7t-7 19v512q0 11 7 18t18 7h308q11 0 18 -7t7 -18v-512zM922 896h-820q-42 0 -72 -30t-30 -72v-820q0 -42 30 -72t72 -30h820
q42 0 72 30t30 72v820q0 11 -2.5 22.5t-8 22t-12.5 19t-15.5 15.5t-19 12.5t-22 8t-22.5 2.5zM102 -26v820h820v-820h-820z" />
    <glyph glyph-name="uniE612" unicode="&#xe612;" 
d="M358 845h-307q-19 0 -35 -16t-16 -35v-154q0 -19 16 -35t35 -16h307q29 0 45 28q6 12 7 23v154q0 28 -28 44q-12 6 -24 7zM333 666h-256v102h256v-102zM358 538h-307q-19 0 -35 -16t-16 -36v-153q0 -28 28 -45q12 -6 23 -6h307q29 0 45 28q6 12 7 23v153q0 20 -16 36
t-36 16zM333 358h-256v103h256v-103zM358 230h-307q-19 0 -35 -16t-16 -35v-205q0 -19 16 -35t35 -16h307q29 0 45 28q6 12 7 23v205q0 28 -28 45q-12 6 -24 6zM333 0h-256v154h256v-154zM973 845h-461q-19 0 -35 -16t-16 -35v-820q0 -19 16 -35t35 -16h461q19 0 35 16
t16 35v820q0 28 -28 44q-12 6 -23 7zM947 0h-409v768h409v-768zM666 640h153q12 0 19 7t7 18.5t-7 18.5t-19 7h-153q-12 0 -19 -7t-7 -18.5t7 -18.5t19 -7zM666 538h153q8 0 13.5 3t9 9t3.5 13q0 12 -7 19t-19 7h-153q-12 0 -19 -7t-7 -18.5t7 -18.5t19 -7zM666 435h153
q12 0 19 7t7 19q0 7 -3.5 13t-9 9t-13.5 3h-153q-12 0 -19 -7t-7 -18.5t7 -18.5t19 -7zM666 333h153q12 0 19 7t7 18.5t-7 18.5t-19 7h-153q-12 0 -19 -7t-7 -18.5t7 -18.5t19 -7zM666 230h153q12 0 19 7t7 19t-7 19t-19 7h-153q-12 0 -19 -7t-7 -19t7 -19t19 -7zM666 128
h153q8 0 13.5 3t9 9t3.5 13.5t-3.5 13.5t-9 9t-13.5 3h-153q-5 0 -9 -1t-7 -3.5t-5.5 -5.5t-3.5 -7t-1 -8q0 -12 7 -19t19 -7z" />
  </font>
</defs>
</svg>
